<?xml version="1.0" standalone="no"?>
<!DOCTYPE svg PUBLIC "-//W3C//DTD SVG 20010904//EN"
 "http://www.w3.org/TR/2001/REC-SVG-20010904/DTD/svg10.dtd">
<svg version="1.0" xmlns="http://www.w3.org/2000/svg"
 width="1600.000000pt" height="1600.000000pt" viewBox="0 0 1600.000000 1600.000000"
 preserveAspectRatio="xMidYMid meet">
<metadata>
Created by potrace 1.14, written by Peter Selinger 2001-2017
</metadata>
<g transform="translate(0.000000,1600.000000) scale(0.100000,-0.100000)"
fill="#000000" stroke="none">
<path d="M12496 11963 c-1 -1 -40 -5 -87 -8 -79 -5 -126 -9 -259 -21 -102 -8
-135 -12 -190 -19 -30 -4 -66 -9 -80 -10 -14 -2 -45 -6 -70 -9 -25 -4 -63 -9
-85 -12 -22 -2 -94 -14 -160 -25 -66 -11 -133 -22 -150 -25 -53 -9 -79 -14
-105 -20 -14 -3 -38 -7 -55 -9 -16 -2 -52 -9 -80 -15 -27 -7 -61 -14 -75 -16
-14 -3 -63 -14 -110 -24 -47 -10 -98 -21 -115 -24 -16 -3 -56 -12 -87 -21 -32
-8 -70 -17 -85 -20 -16 -3 -53 -12 -83 -20 -30 -9 -68 -19 -85 -22 -16 -3 -38
-9 -47 -14 -10 -5 -18 -8 -18 -5 0 2 -24 -2 -52 -11 -29 -8 -91 -25 -138 -38
-144 -40 -294 -83 -325 -93 -16 -6 -77 -25 -135 -42 -163 -49 -1148 -372
-1298 -425 -7 -2 -16 -5 -20 -6 -6 -1 -33 -11 -97 -35 -11 -4 -25 -8 -30 -9
-10 -2 -162 -52 -495 -161 -91 -30 -174 -58 -185 -63 -11 -5 -42 -17 -70 -26
-27 -10 -59 -21 -70 -26 -11 -4 -49 -20 -85 -34 -112 -45 -326 -149 -380 -184
-14 -9 -34 -21 -45 -28 -11 -6 -60 -37 -110 -69 -174 -112 -289 -159 -630
-259 -49 -14 -101 -30 -115 -35 -27 -10 -98 -29 -115 -31 -5 0 -26 -7 -45 -15
-19 -8 -37 -15 -40 -15 -10 0 -58 -12 -213 -55 -87 -24 -168 -46 -180 -48 -12
-3 -22 -5 -22 -6 0 -1 -7 -3 -15 -5 -8 -2 -76 -20 -150 -40 -74 -19 -151 -38
-170 -41 -19 -3 -51 -9 -70 -14 -33 -9 -237 -43 -325 -55 -23 -3 -50 -7 -60
-9 -21 -4 -153 -24 -215 -32 -19 -3 -60 -9 -90 -14 -30 -6 -75 -12 -100 -15
-25 -3 -56 -7 -70 -10 -30 -6 -70 -12 -130 -20 -25 -3 -56 -8 -70 -10 -14 -2
-45 -6 -70 -10 -25 -3 -56 -8 -70 -10 -29 -5 -68 -11 -125 -20 -23 -3 -52 -8
-65 -10 -14 -3 -41 -7 -60 -10 -19 -3 -46 -7 -60 -9 -14 -3 -41 -7 -60 -10
-19 -3 -44 -7 -55 -10 -11 -2 -40 -7 -65 -11 -59 -10 -79 -13 -115 -21 -16 -4
-41 -8 -55 -9 -14 -1 -34 -5 -45 -8 -18 -6 -50 -12 -115 -22 -14 -3 -63 -13
-110 -24 -46 -11 -86 -18 -89 -16 -2 3 -10 0 -18 -6 -7 -6 -13 -9 -13 -6 0 3
-20 0 -45 -7 -25 -8 -45 -12 -45 -10 0 2 -11 -1 -26 -6 -14 -6 -39 -12 -57
-15 -18 -3 -49 -10 -70 -16 -21 -6 -50 -12 -65 -14 -24 -4 -94 -20 -132 -31
-8 -2 -42 -10 -75 -18 -33 -7 -121 -28 -195 -45 -74 -18 -145 -34 -158 -37
-13 -3 -76 -16 -140 -30 -64 -14 -126 -27 -137 -30 -51 -10 -249 -55 -254 -59
-3 -1 -22 -6 -41 -9 -19 -3 -91 -22 -160 -42 -69 -19 -129 -37 -135 -38 -5 -2
-23 -6 -40 -11 -16 -4 -34 -10 -40 -14 -5 -3 -14 -6 -20 -7 -24 -5 -230 -80
-330 -121 -278 -113 -321 -148 -451 -363 -21 -36 -38 -68 -37 -72 1 -3 -4 -12
-12 -18 -8 -7 -15 -16 -15 -20 0 -4 -12 -34 -27 -66 -15 -33 -28 -61 -28 -64
0 -3 -8 -25 -17 -50 -24 -65 -57 -179 -63 -220 -3 -19 -8 -42 -10 -50 -12 -47
-24 -223 -29 -473 -8 -294 -18 -499 -32 -612 -4 -27 -8 -61 -9 -75 -1 -14 -6
-50 -11 -80 -5 -30 -8 -195 -8 -366 l2 -311 78 -80 c86 -86 237 -213 254 -213
5 0 10 -3 10 -8 0 -4 18 -18 40 -32 22 -14 40 -28 40 -32 0 -5 5 -8 10 -8 6 0
46 -25 90 -55 44 -30 82 -55 84 -55 3 0 68 -41 146 -90 78 -50 143 -90 145
-90 3 0 91 -53 185 -110 58 -35 387 -200 400 -200 8 0 88 -34 142 -61 10 -5
27 -9 37 -9 11 0 22 -4 25 -9 3 -5 16 -11 28 -14 13 -3 55 -15 93 -27 39 -11
77 -23 85 -24 8 -2 33 -9 55 -14 22 -6 54 -13 70 -16 39 -7 112 -21 215 -41
14 -3 41 -8 60 -11 19 -3 38 -8 43 -11 4 -2 17 -6 30 -9 31 -6 52 -11 137 -33
168 -43 356 -92 375 -96 97 -23 125 -29 180 -38 11 -2 27 -7 35 -10 8 -3 35
-8 60 -11 45 -6 80 -11 135 -21 17 -3 44 -7 60 -9 17 -2 68 -9 115 -16 47 -6
101 -13 120 -15 19 -2 47 -7 63 -10 15 -3 53 -7 85 -10 31 -2 57 -4 57 -5 0
-2 75 -11 210 -25 33 -3 75 -8 93 -10 19 -3 66 -8 105 -11 40 -3 83 -7 97 -9
14 -3 50 -7 80 -10 30 -3 75 -8 100 -11 107 -12 129 -14 195 -19 39 -3 81 -7
95 -10 14 -2 61 -6 105 -10 44 -3 98 -8 120 -11 22 -2 69 -7 105 -9 36 -3 85
-7 110 -10 25 -2 81 -7 125 -10 44 -3 92 -8 108 -10 15 -3 53 -7 85 -10 31 -2
82 -6 112 -10 30 -3 78 -7 105 -10 28 -3 61 -7 75 -10 14 -2 54 -7 90 -10 36
-3 75 -7 86 -9 11 -2 53 -7 95 -10 41 -3 85 -8 99 -11 14 -3 50 -8 80 -11 119
-11 173 -18 250 -29 14 -2 52 -7 85 -10 33 -4 71 -8 85 -10 14 -2 50 -6 80
-10 30 -3 71 -8 90 -10 19 -3 62 -8 94 -11 33 -3 62 -7 66 -9 3 -2 39 -6 80
-10 41 -3 82 -8 90 -10 8 -2 35 -7 60 -10 53 -6 72 -8 295 -39 61 -9 130 -18
155 -21 25 -2 65 -7 90 -10 25 -3 65 -7 90 -9 25 -2 79 -7 120 -11 76 -6 140
-9 545 -20 391 -11 604 -12 663 -3 31 5 239 11 462 13 223 2 417 6 433 9 15 2
81 7 147 11 65 3 127 7 137 9 10 2 63 7 118 11 55 4 102 8 105 10 3 2 39 6 81
9 42 4 85 8 96 10 11 3 44 7 74 11 30 4 69 9 88 11 19 2 46 6 60 9 204 34 285
49 386 71 138 29 134 28 160 37 11 3 31 8 45 11 14 2 90 21 170 41 80 20 156
39 170 41 14 3 50 12 80 20 30 8 66 17 80 20 14 3 52 12 85 21 33 8 71 17 85
19 14 3 34 8 45 11 11 4 25 8 30 9 6 1 42 9 80 19 39 9 77 18 85 20 8 2 42 10
75 19 33 10 65 18 70 20 6 1 37 9 70 16 74 17 74 17 78 20 1 1 9 3 17 5 8 1
35 8 60 15 25 7 52 14 60 15 8 2 31 9 50 15 19 6 46 13 60 16 14 3 48 12 75
21 178 55 216 67 265 84 30 11 64 23 75 28 20 9 146 55 155 57 3 0 19 6 35 13
31 13 53 21 295 116 80 31 174 70 210 87 36 17 115 55 175 83 61 29 169 76
240 104 126 50 165 67 270 117 53 26 64 32 132 77 23 15 47 27 53 27 6 0 13 7
16 15 4 8 10 15 15 15 6 0 15 5 22 10 7 6 30 24 52 41 45 34 51 38 120 94 28
22 55 44 61 50 6 6 30 27 54 46 23 18 54 45 69 59 15 14 41 36 57 49 144 119
208 180 254 246 47 66 63 101 120 272 21 62 35 114 32 117 -3 4 1 6 8 6 7 0
11 2 8 6 -3 3 5 44 17 92 13 48 26 107 30 132 3 25 8 52 10 60 9 30 17 127 17
185 -1 98 -1 328 0 360 1 17 -2 89 -6 160 -5 72 -9 166 -11 210 -2 44 -6 103
-9 130 -4 28 -8 84 -11 125 -2 41 -7 100 -10 130 -3 30 -7 80 -9 110 -3 30 -7
84 -11 120 -4 36 -8 92 -10 125 -2 33 -6 85 -9 115 -3 30 -9 84 -11 120 -3 36
-7 79 -9 95 -2 17 -7 66 -11 110 -4 44 -9 83 -11 86 -2 4 -6 37 -9 75 -3 38
-8 76 -10 84 -2 8 -7 49 -10 90 -3 41 -8 86 -10 100 -5 25 -11 108 -20 275 -3
50 -7 117 -10 150 -4 54 -7 78 -21 167 -24 154 -82 314 -159 443 -13 22 -27
47 -32 55 -4 8 -11 20 -15 25 -11 12 -97 148 -123 193 -11 17 -23 32 -27 32
-4 0 -8 6 -8 13 0 7 -9 23 -20 35 -11 12 -20 25 -20 31 0 5 -3 11 -7 13 -5 2
-22 24 -40 49 -48 71 -127 186 -183 264 -27 39 -55 78 -62 88 -90 130 -149
189 -236 232 -31 15 -69 37 -84 47 -16 11 -28 16 -28 12 0 -4 -8 0 -17 8 -10
8 -45 28 -78 44 -33 16 -62 32 -65 35 -7 10 -386 199 -397 199 -5 0 -28 9 -51
20 -57 28 -348 120 -422 134 -14 3 -36 8 -50 11 -14 3 -36 8 -50 11 -14 2 -36
7 -50 10 -14 3 -38 8 -55 10 -27 4 -93 16 -105 19 -3 0 -41 5 -85 10 -44 4
-89 9 -100 11 -129 13 -277 19 -430 15 -16 -1 -86 0 -153 2 -68 1 -125 1 -126
0z"/>
</g>
</svg>
